# xmcd
#
# Track frame offsets: 
#        150
#        21751
#        43739
#        62690
#        77839
#        100515
#        122874
#        137904
#        157419
#        182880
#        209686
#        239930
#
# Disc length: 3644 seconds
#
# Revision: 0
# Processed by: cddbd v1.5.2PL0 Copyright (c) Steve Scherf et al.
# Submitted via: ExactAudioCopy v0.99pb4
#
DISCID=b70e3a0c
DTITLE=Blues Basement - Blue Tales
DYEAR=2005
DGENRE=
TTITLE0=Blistering blues
TTITLE1=The lost weekend
TTITLE2=Highway blues
TTITLE3=Touch my soul
TTITLE4=Cloud Nine Boogie
TTITLE5=High tide
TTITLE6=Make love to me
TTITLE7=My babe she caught a plane
TTITLE8=Brave new world
TTITLE9=Bad mood blues
TTITLE10=Down the nikkel road
TTITLE11=Gone fishing blues
EXTD=
EXTT0=
EXTT1=
EXTT2=
EXTT3=
EXTT4=
EXTT5=
EXTT6=
EXTT7=
EXTT8=
EXTT9=
EXTT10=
EXTT11=
PLAYORDER=
